<svg version="1.1" xmlns="http://www.w3.org/2000/svg" viewBox="0 0 737.7142028808594 1521.8095779418945" width="737.7142028808594" height="1521.8095779418945">
  <!-- svg-source:excalidraw -->
  
  <defs>
    <style>
      @font-face {
        font-family: "Virgil";
        src: url("https://excalidraw.com/Virgil.woff2");
      }
      @font-face {
        font-family: "Cascadia";
        src: url("https://excalidraw.com/Cascadia.woff2");
      }
    </style>
  </defs>
  <rect x="0" y="0" width="737.7142028808594" height="1521.8095779418945" fill="#ffffff"></rect><g stroke-linecap="round" transform="translate(157.47003359352152 836.2400882734355) rotate(359.25891842987085 148.57159423828125 48.57142639160156)"><path d="M142.04 -0.01 C158.85 -1.01, 177.77 0.6, 194.51 2.45 C211.25 4.3, 228.53 7.38, 242.48 11.11 C256.43 14.83, 269.34 19.63, 278.2 24.79 C287.05 29.94, 292.98 36.36, 295.62 42.03 C298.26 47.7, 298.24 53.26, 294.06 58.8 C289.88 64.34, 280.75 70.47, 270.54 75.27 C260.33 80.07, 247.41 84.03, 232.8 87.61 C218.2 91.19, 200.44 95.33, 182.9 96.74 C165.36 98.16, 145.16 97.19, 127.56 96.08 C109.95 94.97, 92.81 92.8, 77.28 90.08 C61.75 87.36, 45.92 83.94, 34.39 79.76 C22.87 75.59, 13.71 70.67, 8.12 65.06 C2.54 59.44, 0.27 52.03, 0.88 46.07 C1.49 40.11, 4.66 34.51, 11.77 29.28 C18.87 24.05, 30.69 18.9, 43.5 14.67 C56.32 10.43, 71.47 6.43, 88.67 3.87 C105.87 1.32, 136.07 -0.24, 146.68 -0.65 C157.28 -1.06, 152.38 0.59, 152.31 1.42 M120.68 2.06 C136.58 -0.19, 156.68 -1.51, 174.02 -0.51 C191.36 0.49, 209.23 4.93, 224.7 8.05 C240.16 11.17, 255.64 13.86, 266.81 18.22 C277.97 22.58, 286.93 28.62, 291.7 34.2 C296.47 39.78, 297.15 45.69, 295.45 51.69 C293.74 57.68, 289.15 64.98, 281.47 70.19 C273.79 75.4, 262.47 78.77, 249.35 82.94 C236.24 87.11, 219.4 93.01, 202.79 95.21 C186.18 97.41, 167.73 96.19, 149.67 96.15 C131.62 96.12, 111.09 97.07, 94.46 94.99 C77.84 92.91, 62.78 87.87, 49.92 83.67 C37.06 79.47, 25.42 74.73, 17.32 69.8 C9.22 64.87, 3.28 59.7, 1.31 54.06 C-0.67 48.43, 0.73 41.97, 5.49 36 C10.25 30.02, 19.09 23.19, 29.86 18.22 C40.63 13.25, 54.8 9.14, 70.12 6.16 C85.43 3.17, 113.44 0.81, 121.75 0.31 C130.06 -0.2, 119.65 2.41, 119.98 3.13" stroke="#000000" stroke-width="1" fill="none"></path></g><g transform="translate(162.47003359352152 871.8115146650371) rotate(359.25891842987085 143.5 13)"><text x="143.5" y="18" font-family="Virgil, Segoe UI Emoji" font-size="20px" fill="#000000" text-anchor="middle" style="white-space: pre;" direction="ltr">usuário já cadastrado?</text></g><g stroke-linecap="round"><g transform="translate(425.2299243133755 940.0800377551491) rotate(359.25891842987085 26.268729738853892 28.289187148548706)"><path d="M-0.93 0.15 C7.69 9.64, 42.44 47.72, 51.32 57.4 M0.78 -0.82 C9.79 8.26, 45 45.87, 53.47 55.41" stroke="#000000" stroke-width="1" fill="none"></path></g><g transform="translate(425.2299243133755 940.0800377551491) rotate(359.25891842987085 26.268729738853892 28.289187148548706)"><path d="M27.11 39.78 C34.43 45.41, 42.86 49.41, 54.72 55.49 M26.32 42.53 C33.4 43.92, 37.88 47.01, 54.36 55.14" stroke="#000000" stroke-width="1" fill="none"></path></g><g transform="translate(425.2299243133755 940.0800377551491) rotate(359.25891842987085 26.268729738853892 28.289187148548706)"><path d="M42.24 25.92 C45.57 35.12, 49.98 42.81, 54.72 55.49 M41.45 28.66 C45.23 32.97, 46.45 39.06, 54.36 55.14" stroke="#000000" stroke-width="1" fill="none"></path></g></g><g stroke-linecap="round"><g transform="translate(209.39145470325752 961.5787569774109) rotate(359.25891842987085 -20.848224006965722 35.73148419290783)"><path d="M0.23 -0.06 C-6.65 11.65, -34.94 59.3, -41.93 71.19 M-1.11 -1.14 C-7.56 10.67, -33.38 60.33, -39.72 72.6" stroke="#000000" stroke-width="1" fill="none"></path></g><g transform="translate(209.39145470325752 961.5787569774109) rotate(359.25891842987085 -20.848224006965722 35.73148419290783)"><path d="M-35.95 41.23 C-36.96 48.95, -37.78 56.54, -41.11 71.77 M-36.7 42.3 C-37.63 55.08, -39.87 65.46, -39.57 72.67" stroke="#000000" stroke-width="1" fill="none"></path></g><g transform="translate(209.39145470325752 961.5787569774109) rotate(359.25891842987085 -20.848224006965722 35.73148419290783)"><path d="M-17.73 50.69 C-23.29 56.13, -28.57 61.39, -41.11 71.77 M-18.48 51.75 C-26.5 60.86, -35.9 67.53, -39.57 72.67" stroke="#000000" stroke-width="1" fill="none"></path></g></g><g stroke-linecap="round" transform="translate(463.4179279204477 1028.7838390424347) rotate(359.25891842987085 52 20)"><path d="M32.91 2.03 C40.68 0.41, 51.28 -0.31, 60.3 0.09 C69.33 0.49, 79.94 1.84, 87.05 4.42 C94.17 7, 100.76 12.04, 103 15.54 C105.24 19.05, 103.6 22.11, 100.48 25.47 C97.37 28.84, 91.54 33.22, 84.3 35.71 C77.07 38.21, 66.46 39.98, 57.1 40.44 C47.74 40.89, 36.31 40.24, 28.13 38.44 C19.96 36.64, 12.66 32.73, 8.03 29.63 C3.4 26.53, 0.21 23.42, 0.35 19.83 C0.49 16.23, 3.24 11.01, 8.87 8.04 C14.5 5.07, 29.17 3.01, 34.13 2 C39.1 0.99, 38.21 1.9, 38.67 1.98 M34.23 1.85 C42.75 0.25, 55.78 -1.55, 64.74 -0.87 C73.71 -0.2, 81.84 3.05, 88.02 5.89 C94.19 8.74, 99.68 12.8, 101.79 16.19 C103.91 19.59, 103.72 22.93, 100.71 26.28 C97.7 29.64, 91.28 34.25, 83.74 36.34 C76.21 38.43, 64.87 38.53, 55.5 38.81 C46.12 39.09, 35.92 39.69, 27.49 38 C19.06 36.31, 9.69 32.09, 4.91 28.68 C0.13 25.27, -2.14 21.22, -1.22 17.53 C-0.3 13.84, 4.58 9.2, 10.44 6.54 C16.31 3.88, 29.73 2.23, 33.99 1.58 C38.25 0.93, 35.45 2.65, 36 2.65" stroke="#000000" stroke-width="1" fill="none"></path></g><g transform="translate(468.4179279204477 1035.7838390424347) rotate(359.25891842987085 47 13)"><text x="47" y="18" font-family="Virgil, Segoe UI Emoji" font-size="20px" fill="#000000" text-anchor="middle" style="white-space: pre;" direction="ltr">não</text></g><g stroke-linecap="round" transform="translate(122.78397567254592 1053.260808325545) rotate(359.25891842987085 46.66680908203125 22.3809814453125)"><path d="M25.37 2.47 C33.03 0.28, 45.53 -0.99, 54.76 -0.25 C64 0.5, 74.41 3.83, 80.78 6.95 C87.16 10.06, 91.74 14.07, 93.02 18.45 C94.29 22.82, 92.89 29.27, 88.45 33.19 C84.02 37.12, 74.85 40.2, 66.39 41.97 C57.94 43.75, 46.64 44.67, 37.75 43.85 C28.86 43.03, 19.28 40.08, 13.04 37.07 C6.8 34.06, 1.42 29.87, 0.3 25.8 C-0.81 21.73, 0.13 17.02, 6.35 12.64 C12.57 8.26, 30.69 1.59, 37.63 -0.48 C44.58 -2.55, 48.06 -0.34, 48.03 0.21 M65 2.05 C73.21 3.51, 81.9 8.14, 86.7 12 C91.49 15.85, 94.68 20.96, 93.76 25.16 C92.84 29.37, 87.26 33.79, 81.18 37.21 C75.11 40.62, 66.46 44.72, 57.31 45.65 C48.16 46.57, 34.82 44.85, 26.29 42.76 C17.77 40.66, 10.57 37.17, 6.14 33.1 C1.71 29.03, -1.49 22.79, -0.29 18.36 C0.92 13.93, 7.1 9.42, 13.36 6.5 C19.61 3.58, 28.5 1.46, 37.25 0.85 C46 0.24, 61.37 2.63, 65.86 2.81 C70.35 3, 64.51 1.66, 64.18 1.98" stroke="#000000" stroke-width="1" fill="none"></path></g><g transform="translate(127.78397567254592 1062.6417897708575) rotate(359.25891842987085 41.5 13)"><text x="41.5" y="18" font-family="Virgil, Segoe UI Emoji" font-size="20px" fill="#000000" text-anchor="middle" style="white-space: pre;" direction="ltr">sim</text></g><g stroke-linecap="round"><g transform="translate(515.7530765109755 1082.099280076627) rotate(359.25891842987085 1.5022188135981764 36.76414315182717)"><path d="M0.61 0.79 C0.88 13.01, 0.78 61.26, 1.19 73.36 M-0.53 0.17 C0.17 12.05, 2.95 59.85, 3.53 71.75" stroke="#000000" stroke-width="1" fill="none"></path></g><g transform="translate(515.7530765109755 1082.099280076627) rotate(359.25891842987085 1.5022188135981764 36.76414315182717)"><path d="M-6.91 42.98 C-3.46 53.39, -0.31 58.29, 4.52 71.09 M-7.32 43.51 C-5.56 49.45, -3.27 56.61, 3.6 71.54" stroke="#000000" stroke-width="1" fill="none"></path></g><g transform="translate(515.7530765109755 1082.099280076627) rotate(359.25891842987085 1.5022188135981764 36.76414315182717)"><path d="M13.58 41.86 C11.6 52.68, 9.31 57.87, 4.52 71.09 M13.17 42.4 C10.61 48.69, 8.57 56.09, 3.6 71.54" stroke="#000000" stroke-width="1" fill="none"></path></g></g><g stroke-linecap="round" transform="translate(466.43883680842805 1181.9621412893075) rotate(359.25891842987085 62 26.666656494140625)"><path d="M78.95 0.99 C88.6 1.73, 99.17 5.46, 106.2 8.66 C113.24 11.85, 118.58 16.1, 121.16 20.16 C123.73 24.22, 124.37 28.87, 121.66 33.02 C118.95 37.17, 112.28 41.92, 104.92 45.06 C97.57 48.21, 87.47 50.54, 77.54 51.91 C67.6 53.29, 55.35 54.28, 45.33 53.29 C35.3 52.3, 24.47 49.32, 17.38 45.98 C10.29 42.65, 5.23 37.78, 2.76 33.28 C0.29 28.78, 0.06 23.19, 2.57 18.96 C5.09 14.73, 10.34 10.81, 17.85 7.89 C25.36 4.98, 36.68 2.65, 47.62 1.5 C58.56 0.35, 77.03 0.72, 83.48 0.98 C89.93 1.24, 86.62 2.63, 86.32 3.08 M88.54 4.35 C97.38 6, 106.9 9.64, 112.92 13.3 C118.93 16.95, 123.85 22.27, 124.65 26.26 C125.44 30.25, 122.32 33.53, 117.69 37.24 C113.06 40.95, 105.47 46.03, 96.89 48.52 C88.31 51.02, 76.45 52.13, 66.2 52.21 C55.95 52.28, 44.84 50.85, 35.39 48.97 C25.93 47.09, 15.25 44.34, 9.48 40.93 C3.72 37.51, 1.23 32.94, 0.79 28.48 C0.34 24.03, 2.48 18.13, 6.82 14.22 C11.17 10.3, 17.98 7.26, 26.84 4.97 C35.7 2.67, 49.29 1.02, 59.99 0.44 C70.69 -0.14, 86.06 1.13, 91.05 1.5 C96.03 1.87, 90.64 2.22, 89.89 2.66" stroke="#000000" stroke-width="1" fill="none"></path></g><g transform="translate(471.43883680842805 1195.6287977834481) rotate(359.25891842987085 57 13)"><text x="57" y="18" font-family="Virgil, Segoe UI Emoji" font-size="20px" fill="#000000" text-anchor="middle" style="white-space: pre;" direction="ltr">registro</text></g><g stroke-linecap="round"><g transform="translate(168.41297155690063 1114.2380657679525) rotate(359.25891842987085 -0.4486184476688777 28.458197929561038)"><path d="M0.77 0.26 C0.66 9.62, -0.52 46.63, -0.8 56.08 M-0.28 -0.65 C-0.53 8.91, -1.45 48.28, -1.67 57.57" stroke="#000000" stroke-width="1" fill="none"></path></g><g transform="translate(168.41297155690063 1114.2380657679525) rotate(359.25891842987085 -0.4486184476688777 28.458197929561038)"><path d="M-10.22 31.19 C-8.24 38.68, -4.15 45.69, 0.12 56.43 M-11.16 31.62 C-7.34 38.08, -5 46.54, -2.36 57.45" stroke="#000000" stroke-width="1" fill="none"></path></g><g transform="translate(168.41297155690063 1114.2380657679525) rotate(359.25891842987085 -0.4486184476688777 28.458197929561038)"><path d="M9 31.65 C5.42 39.13, 3.96 46.01, 0.12 56.43 M8.06 32.07 C6.32 38.56, 3.1 46.88, -2.36 57.45" stroke="#000000" stroke-width="1" fill="none"></path></g></g><g stroke-linecap="round" transform="translate(109.46763127664144 1195.183931692644) rotate(359.25891842987085 59.52392578125 29.047637939453125)"><path d="M60.82 -0.59 C71.14 -0.99, 83.36 2.24, 92.08 5.15 C100.8 8.06, 108.76 12.24, 113.13 16.88 C117.5 21.52, 119.74 27.81, 118.27 33.01 C116.81 38.2, 111.27 44.17, 104.34 48.06 C97.41 51.94, 87.04 54.93, 76.66 56.31 C66.29 57.7, 52.6 57.76, 42.1 56.38 C31.6 55.01, 20.41 51.9, 13.65 48.07 C6.89 44.25, 2.84 38.8, 1.55 33.44 C0.26 28.08, 1.53 20.86, 5.91 15.92 C10.28 10.99, 18.26 6.35, 27.78 3.85 C37.3 1.35, 56.47 1.26, 63.01 0.92 C69.54 0.58, 67.08 1.37, 66.99 1.8 M86.03 2.66 C95.65 4.21, 103.35 7.8, 108.95 12.22 C114.54 16.65, 119.5 23.96, 119.6 29.22 C119.71 34.47, 115.58 39.31, 109.6 43.74 C103.62 48.18, 93.41 53.42, 83.72 55.82 C74.02 58.22, 62.32 59.14, 51.44 58.15 C40.56 57.16, 26.56 53.57, 18.46 49.89 C10.35 46.22, 5.57 40.8, 2.81 36.08 C0.05 31.37, -1.33 26.62, 1.92 21.61 C5.17 16.6, 13.85 9.53, 22.33 6.05 C30.81 2.56, 42.24 1.29, 52.8 0.68 C63.37 0.07, 80.24 1.78, 85.73 2.36 C91.22 2.93, 86.24 3.77, 85.73 4.14" stroke="#000000" stroke-width="1" fill="none"></path></g><g transform="translate(114.46763127664144 1211.231569632097) rotate(359.25891842987085 54.5 13)"><text x="54.5" y="18" font-family="Virgil, Segoe UI Emoji" font-size="20px" fill="#000000" text-anchor="middle" style="white-space: pre;" direction="ltr">login</text></g><g stroke-linecap="round"><g transform="translate(447.39074021262195 1208.8475701869838) rotate(359.25891842987085 -83.12765290856362 0.8051717841998425)"><path d="M-1.12 0.09 C-28.81 0.35, -138.34 2.16, -166.1 2.52 M0.5 -0.91 C-27.3 -1.08, -139.12 0.55, -166.75 0.73" stroke="#000000" stroke-width="1" fill="none"></path></g><g transform="translate(447.39074021262195 1208.8475701869838) rotate(359.25891842987085 -83.12765290856362 0.8051717841998425)"><path d="M-138.53 -8.89 C-146.06 -8.57, -154.97 -2.1, -167.1 1.23 M-138.8 -10.6 C-148.88 -6.8, -159.17 -1.9, -166.51 1.21" stroke="#000000" stroke-width="1" fill="none"></path></g><g transform="translate(447.39074021262195 1208.8475701869838) rotate(359.25891842987085 -83.12765290856362 0.8051717841998425)"><path d="M-138.31 11.63 C-146.07 5.73, -155.04 5.99, -167.1 1.23 M-138.58 9.92 C-148.54 6.33, -158.92 3.84, -166.51 1.21" stroke="#000000" stroke-width="1" fill="none"></path></g></g><g stroke-linecap="round" transform="translate(275.7141418457031 10) rotate(0 137.5 50.5)"><path d="M201.76 5.84 C216.83 7.67, 231.98 12.08, 242.78 16.79 C253.58 21.51, 261.32 28.2, 266.56 34.12 C271.79 40.05, 274.64 46.41, 274.19 52.36 C273.74 58.3, 270.05 64.3, 263.86 69.82 C257.67 75.33, 248.47 80.98, 237.07 85.44 C225.66 89.9, 210.57 93.86, 195.42 96.57 C180.27 99.28, 162.65 101.43, 146.17 101.7 C129.68 101.96, 112.41 100, 96.48 98.16 C80.55 96.32, 63.69 94.23, 50.6 90.64 C37.51 87.05, 25.99 81.95, 17.93 76.64 C9.88 71.33, 4.89 64.88, 2.28 58.76 C-0.33 52.65, -1.19 45.8, 2.28 39.94 C5.75 34.07, 13.9 28.77, 23.12 23.55 C32.33 18.33, 44.02 12.23, 57.58 8.61 C71.14 5, 88.36 3.13, 104.47 1.87 C120.58 0.61, 137.59 0.41, 154.26 1.06 C170.94 1.71, 195.99 4.52, 204.52 5.76 C213.04 7, 206.53 7.74, 205.41 8.5 M107.9 2.77 C122.71 0.8, 140.98 0.91, 156.9 1.66 C172.83 2.41, 189.06 4.36, 203.45 7.25 C217.84 10.15, 232.63 14.69, 243.26 19.04 C253.88 23.39, 261.7 27.75, 267.19 33.36 C272.68 38.96, 276.65 46.16, 276.19 52.66 C275.72 59.16, 271.52 66.6, 264.41 72.36 C257.31 78.13, 245.41 83.25, 233.57 87.23 C221.74 91.2, 208.61 94.11, 193.41 96.22 C178.21 98.32, 158.85 99.4, 142.37 99.85 C125.9 100.31, 110.29 100.8, 94.57 98.93 C78.85 97.07, 60.88 92.63, 48.06 88.66 C35.24 84.69, 25.62 80.37, 17.66 75.13 C9.71 69.89, 2.9 63.1, 0.34 57.23 C-2.21 51.36, -1.45 45.8, 2.33 39.91 C6.11 34.03, 13.62 27.08, 23.03 21.93 C32.44 16.78, 45.06 12.4, 58.79 9.03 C72.53 5.66, 97.44 3, 105.46 1.7 C113.47 0.4, 106.28 0.43, 106.87 1.25" stroke="#000000" stroke-width="1" fill="none"></path></g><g transform="translate(280.7141418457031 34.5) rotate(0 132.5 26)"><text x="132.5" y="18" font-family="Virgil, Segoe UI Emoji" font-size="20px" fill="#000000" text-anchor="middle" style="white-space: pre;" direction="ltr">tela inicial - quantidade </text><text x="132.5" y="44" font-family="Virgil, Segoe UI Emoji" font-size="20px" fill="#000000" text-anchor="middle" style="white-space: pre;" direction="ltr">de ingressos</text></g><g stroke-linecap="round"><g transform="translate(396.4834679074547 121.6195167488801) rotate(0 2.834764525223534 42.76184975268693)"><path d="M0.63 0.63 C1.46 14.52, 3.29 70.28, 3.79 84.51 M-0.5 -0.08 C0.83 14.45, 5.07 71.59, 6.17 85.61" stroke="#000000" stroke-width="1" fill="none"></path></g><g transform="translate(396.4834679074547 121.6195167488801) rotate(0 2.834764525223534 42.76184975268693)"><path d="M-5.16 57.24 C-4.86 62.39, 0.1 70.48, 6.83 84.48 M-7.2 57.44 C-1.84 68.26, 2.5 77.71, 6.4 85.19" stroke="#000000" stroke-width="1" fill="none"></path></g><g transform="translate(396.4834679074547 121.6195167488801) rotate(0 2.834764525223534 42.76184975268693)"><path d="M15.31 55.68 C11.52 61.25, 12.37 69.65, 6.83 84.48 M13.26 55.88 C11.21 67.12, 8.13 77.14, 6.4 85.19" stroke="#000000" stroke-width="1" fill="none"></path></g></g><g stroke-linecap="round" transform="translate(290.9522705078125 226.19049072265625) rotate(0 118 50)"><path d="M107.64 -0.63 C121.83 -2.04, 139.15 0.31, 153.51 2.37 C167.87 4.43, 182.46 7.62, 193.83 11.73 C205.2 15.83, 214.67 21.51, 221.73 27.02 C228.78 32.52, 234.68 38.39, 236.15 44.74 C237.62 51.09, 235.21 58.9, 230.57 65.12 C225.93 71.33, 217.99 77.23, 208.3 82.02 C198.6 86.82, 185.75 90.96, 172.41 93.87 C159.07 96.78, 143.22 98.99, 128.27 99.49 C113.32 100, 97.08 98.67, 82.71 96.9 C68.35 95.12, 53.67 92.78, 42.06 88.85 C30.46 84.92, 19.92 79.01, 13.1 73.31 C6.28 67.62, 2.43 60.91, 1.16 54.67 C-0.11 48.42, 1.02 42.07, 5.48 35.86 C9.95 29.65, 18.34 22.47, 27.98 17.41 C37.62 12.34, 49.15 8.24, 63.33 5.45 C77.51 2.66, 104.07 1.27, 113.04 0.66 C122.02 0.05, 117.35 0.96, 117.17 1.78 M168.36 5.36 C182.26 7.21, 196.1 11.95, 206.05 16.53 C216 21.11, 222.94 26.7, 228.06 32.85 C233.19 39.01, 237.48 46.91, 236.81 53.47 C236.14 60.04, 230.4 66.87, 224.05 72.22 C217.7 77.58, 209.58 81.59, 198.72 85.6 C187.86 89.6, 173.21 93.87, 158.91 96.26 C144.62 98.65, 127.99 100.2, 112.94 99.95 C97.88 99.7, 82.44 97.62, 68.6 94.75 C54.75 91.88, 40.12 87.37, 29.86 82.72 C19.59 78.07, 11.73 72.41, 7 66.83 C2.27 61.24, 0.89 55.71, 1.48 49.22 C2.07 42.73, 4.15 33.97, 10.54 27.9 C16.94 21.83, 28.46 16.72, 39.82 12.81 C51.19 8.91, 64.9 6.42, 78.74 4.46 C92.58 2.51, 107.98 1.08, 122.87 1.08 C137.75 1.08, 160.52 3.85, 168.05 4.46 C175.57 5.08, 168.99 3.82, 168.03 4.79" stroke="#000000" stroke-width="1" fill="none"></path></g><g transform="translate(295.9522705078125 250.19049072265625) rotate(0 113 26)"><text x="113" y="18" font-family="Virgil, Segoe UI Emoji" font-size="20px" fill="#000000" text-anchor="middle" style="white-space: pre;" direction="ltr">ainda há ingressos que</text><text x="113" y="44" font-family="Virgil, Segoe UI Emoji" font-size="20px" fill="#000000" text-anchor="middle" style="white-space: pre;" direction="ltr">a pessoa selecionou?</text></g><g stroke-linecap="round"><g transform="translate(344.2856750488281 336.66668701171875) rotate(0 -23.57034299517983 29.733209919910877)"><path d="M-0.67 0.85 C-8.75 10.56, -40.61 48.28, -48.31 57.82 M1.17 0.25 C-6.53 10.18, -37.89 49.36, -45.97 59.22" stroke="#000000" stroke-width="1" fill="none"></path></g><g transform="translate(344.2856750488281 336.66668701171875) rotate(0 -23.57034299517983 29.733209919910877)"><path d="M-34.81 29.68 C-39.84 40.88, -42.46 47.1, -46.72 58.18 M-35.39 30.16 C-40.35 41.85, -42.14 50.42, -45.73 59.9" stroke="#000000" stroke-width="1" fill="none"></path></g><g transform="translate(344.2856750488281 336.66668701171875) rotate(0 -23.57034299517983 29.733209919910877)"><path d="M-18.85 42.58 C-28.83 49.65, -36.44 51.83, -46.72 58.18 M-19.42 43.05 C-30.06 50.12, -37.5 54.13, -45.73 59.9" stroke="#000000" stroke-width="1" fill="none"></path></g></g><g stroke-linecap="round"><g transform="translate(450.9523010253906 327.1429138183594) rotate(0 9.97998320348563 26.77627178217284)"><path d="M-0.85 0.51 C2.51 9.55, 17.01 45.07, 20.81 53.82 M0.91 -0.27 C4.03 8.45, 16.33 42.88, 19.79 51.95" stroke="#000000" stroke-width="1" fill="none"></path></g><g transform="translate(450.9523010253906 327.1429138183594) rotate(0 9.97998320348563 26.77627178217284)"><path d="M2.15 29.82 C8.6 39.58, 13.82 45.04, 19.44 52.17 M1.82 29.9 C8.22 37.47, 15.91 46.38, 20.78 52.05" stroke="#000000" stroke-width="1" fill="none"></path></g><g transform="translate(450.9523010253906 327.1429138183594) rotate(0 9.97998320348563 26.77627178217284)"><path d="M20.54 23.06 C20.43 35.09, 19.11 42.96, 19.44 52.17 M20.21 23.14 C19.52 33.35, 20.12 44.87, 20.78 52.05" stroke="#000000" stroke-width="1" fill="none"></path></g></g><g stroke-linecap="round" transform="translate(199.52371215820312 415.7143249511719) rotate(0 48.571441650390625 27.142837524414062)"><path d="M51.41 0.58 C59.83 0.33, 70.16 2.09, 77.22 4.79 C84.27 7.5, 90.72 12.09, 93.73 16.81 C96.74 21.53, 96.86 28.23, 95.26 33.1 C93.67 37.96, 90.02 42.73, 84.15 46.01 C78.28 49.29, 68.63 51.56, 60.04 52.78 C51.45 54.01, 40.91 54.72, 32.62 53.38 C24.33 52.04, 15.83 48.77, 10.3 44.72 C4.77 40.67, 0.3 34.09, -0.55 29.08 C-1.4 24.07, 1.04 18.73, 5.21 14.64 C9.39 10.55, 15.53 6.76, 24.5 4.55 C33.47 2.34, 52.35 1.65, 59.01 1.4 C65.67 1.15, 64.61 2.72, 64.45 3.06 M60.73 1.55 C68.89 2.22, 78.1 5.04, 84.07 8.27 C90.05 11.5, 95.17 16.21, 96.58 20.93 C97.98 25.65, 95.79 31.96, 92.48 36.59 C89.17 41.22, 83.74 45.93, 76.72 48.7 C69.7 51.47, 58.79 53.02, 50.37 53.21 C41.95 53.39, 33.64 51.84, 26.21 49.8 C18.77 47.77, 10.15 44.99, 5.78 41 C1.4 37.01, -0.7 31.12, -0.05 25.85 C0.59 20.57, 4.55 13.49, 9.66 9.35 C14.76 5.22, 22.05 2.59, 30.58 1.04 C39.1 -0.51, 55.86 -0.16, 60.78 0.06 C65.7 0.28, 60.7 1.78, 60.11 2.36" stroke="#000000" stroke-width="1" fill="none"></path></g><g transform="translate(204.52371215820312 429.85716247558594) rotate(0 43.5 13)"><text x="43.5" y="18" font-family="Virgil, Segoe UI Emoji" font-size="20px" fill="#000000" text-anchor="middle" style="white-space: pre;" direction="ltr">sim</text></g><g stroke-linecap="round" transform="translate(435.7142028808594 407.1428527832031) rotate(0 54.5 25.714263916015625)"><path d="M73.81 0.84 C82.65 1.92, 91.44 6.31, 97.44 10.12 C103.44 13.93, 108.95 18.89, 109.82 23.71 C110.7 28.53, 107.76 34.88, 102.7 39.02 C97.64 43.15, 88.26 46.49, 79.46 48.54 C70.65 50.58, 59.37 51.57, 49.86 51.31 C40.34 51.05, 30.25 49.84, 22.36 46.97 C14.46 44.1, 6.14 38.48, 2.5 34.09 C-1.14 29.71, -1.89 25.19, 0.52 20.67 C2.93 16.15, 9.89 10.24, 16.97 6.99 C24.04 3.75, 32.87 1.87, 42.99 1.2 C53.11 0.53, 71.02 2.34, 77.7 2.97 C84.37 3.59, 83.45 4.67, 83.05 4.94 M69.67 2.05 C79.17 2.73, 89.67 5.06, 96.34 8.39 C103.01 11.71, 108.44 17.54, 109.68 21.98 C110.92 26.42, 107.85 30.73, 103.77 35.03 C99.69 39.34, 93.63 45.1, 85.2 47.82 C76.77 50.55, 63.28 51.47, 53.17 51.38 C43.06 51.29, 32.5 49.96, 24.53 47.27 C16.56 44.59, 9.44 39.38, 5.35 35.25 C1.26 31.12, -1.39 26.75, -0.01 22.5 C1.37 18.26, 6.98 13.59, 13.62 9.78 C20.27 5.97, 30.53 1.22, 39.84 -0.35 C49.15 -1.92, 64.44 0.23, 69.49 0.35 C74.55 0.48, 70.19 -0.2, 70.19 0.4" stroke="#000000" stroke-width="1" fill="none"></path></g><g transform="translate(440.7142028808594 419.85711669921875) rotate(0 49.5 13)"><text x="49.5" y="18" font-family="Virgil, Segoe UI Emoji" font-size="20px" fill="#000000" text-anchor="middle" style="white-space: pre;" direction="ltr">não</text></g><g stroke-linecap="round"><g transform="translate(239.52371215820312 489.04766845703125) rotate(0 -4.448265092376289 37.20845889673575)"><path d="M0.13 -0.68 C-1.17 11.76, -6.77 61.36, -7.93 73.78 M-1.26 1.58 C-2.73 14.25, -8.05 62.87, -9.03 75.1" stroke="#000000" stroke-width="1" fill="none"></path></g><g transform="translate(239.52371215820312 489.04766845703125) rotate(0 -4.448265092376289 37.20845889673575)"><path d="M-17.65 45.56 C-15.25 55.89, -13.01 62.68, -7.89 76.6 M-16.44 46.18 C-14.35 55.94, -10.74 67.6, -9.18 74.51" stroke="#000000" stroke-width="1" fill="none"></path></g><g transform="translate(239.52371215820312 489.04766845703125) rotate(0 -4.448265092376289 37.20845889673575)"><path d="M2.77 47.54 C-0.75 57.32, -4.45 63.53, -7.89 76.6 M3.98 48.16 C-1.48 57.36, -5.43 68.28, -9.18 74.51" stroke="#000000" stroke-width="1" fill="none"></path></g></g><g stroke-linecap="round" transform="translate(90.95236206054688 579.5238647460938) rotate(0 142 44.5)"><path d="M106.42 2 C121.57 0.02, 141.02 -0.5, 158.14 -0.05 C175.27 0.41, 193.91 2.03, 209.18 4.74 C224.45 7.45, 238.59 12.02, 249.78 16.22 C260.98 20.42, 270.78 25.17, 276.33 29.95 C281.88 34.74, 283.69 39.55, 283.09 44.92 C282.49 50.3, 278.99 57.23, 272.72 62.2 C266.45 67.18, 257.09 71.1, 245.48 74.76 C233.86 78.43, 218.78 81.92, 203.04 84.2 C187.3 86.49, 168.16 88.09, 151.03 88.49 C133.9 88.88, 116.29 87.99, 100.25 86.58 C84.21 85.16, 68.32 83.21, 54.81 79.98 C41.3 76.74, 27.92 72.01, 19.21 67.18 C10.5 62.34, 5.1 56.38, 2.54 50.97 C-0.03 45.56, 0.45 39.96, 3.84 34.71 C7.24 29.47, 13.84 23.89, 22.9 19.49 C31.95 15.09, 42.14 11.49, 58.19 8.31 C74.25 5.13, 106.76 1.71, 119.22 0.42 C131.67 -0.88, 132.59 -0.07, 132.93 0.53 M179.3 2.66 C195.39 3.62, 211.22 6.8, 224.76 9.94 C238.31 13.08, 251.44 17.42, 260.59 21.5 C269.73 25.58, 276.08 29.3, 279.63 34.43 C283.17 39.56, 284.56 47.04, 281.86 52.28 C279.16 57.51, 271.93 61.13, 263.44 65.84 C254.96 70.55, 244.23 76.8, 230.95 80.54 C217.66 84.28, 200.47 86.92, 183.73 88.26 C166.99 89.59, 147.76 89.2, 130.51 88.57 C113.26 87.93, 95.26 86.48, 80.22 84.45 C65.18 82.42, 51.91 80.33, 40.27 76.39 C28.62 72.44, 17.24 66.03, 10.33 60.77 C3.41 55.51, -0.82 49.98, -1.24 44.85 C-1.66 39.72, 1.67 35.05, 7.82 29.97 C13.96 24.89, 24.09 18.3, 35.63 14.38 C47.17 10.45, 61.93 8.75, 77.06 6.41 C92.2 4.07, 109.46 1.13, 126.45 0.35 C143.44 -0.43, 170.56 1.26, 178.98 1.75 C187.41 2.23, 177.94 2.66, 176.99 3.25" stroke="#000000" stroke-width="1" fill="none"></path></g><g transform="translate(95.95236206054688 598.0238647460938) rotate(0 137 26)"><text x="137" y="18" font-family="Virgil, Segoe UI Emoji" font-size="20px" fill="#000000" text-anchor="middle" style="white-space: pre;" direction="ltr">ingresso no carrinho pra </text><text x="137" y="44" font-family="Virgil, Segoe UI Emoji" font-size="20px" fill="#000000" text-anchor="middle" style="white-space: pre;" direction="ltr">finalizar a compra</text></g><g stroke-linecap="round"><g transform="translate(503.3332824707031 476.666748046875) rotate(0 -0.7755095987692471 41.95543568257244)"><path d="M-1.09 0.89 C-1.25 14.63, -2.31 69.94, -2.13 83.6 M0.53 0.31 C0.82 14.23, 0.11 67.89, -0.04 81.87" stroke="#000000" stroke-width="1" fill="none"></path></g><g transform="translate(503.3332824707031 476.666748046875) rotate(0 -0.7755095987692471 41.95543568257244)"><path d="M-8.5 51.6 C-6.46 60.87, -5.65 66.02, -1.97 79.92 M-10.39 52.75 C-8.62 60.19, -4.91 66.72, -0.19 82.57" stroke="#000000" stroke-width="1" fill="none"></path></g><g transform="translate(503.3332824707031 476.666748046875) rotate(0 -0.7755095987692471 41.95543568257244)"><path d="M12.02 51.83 C9.91 60.88, 6.57 65.97, -1.97 79.92 M10.13 52.98 C6.89 60.52, 5.58 66.99, -0.19 82.57" stroke="#000000" stroke-width="1" fill="none"></path></g></g><g stroke-linecap="round" transform="translate(415.7142028808594 584.2857666015625) rotate(0 156 83.5)"><path d="M169.56 0.01 C186.83 -0.5, 206.11 3.4, 222.03 7.49 C237.96 11.59, 252.66 17.99, 265.11 24.59 C277.56 31.18, 289.17 38.47, 296.74 47.06 C304.32 55.66, 308.71 66.51, 310.55 76.15 C312.38 85.78, 312.2 95.64, 307.75 104.88 C303.3 114.11, 294.13 123.67, 283.84 131.56 C273.55 139.44, 260.43 146.8, 245.99 152.2 C231.55 157.61, 214.34 161.43, 197.21 163.97 C180.08 166.5, 161.04 168.12, 143.21 167.44 C125.38 166.76, 106.49 163.92, 90.24 159.9 C73.98 155.89, 58.08 150.1, 45.67 143.37 C33.27 136.64, 23.32 128.17, 15.81 119.52 C8.3 110.88, 2.29 100.99, 0.62 91.49 C-1.04 82, 1.24 71.85, 5.82 62.56 C10.39 53.28, 18.11 43.78, 28.07 35.78 C38.03 27.78, 51.27 20.14, 65.56 14.58 C79.84 9.01, 95.4 4.85, 113.78 2.4 C132.16 -0.05, 164.5 -0.37, 175.83 -0.12 C187.17 0.14, 182.22 2.38, 181.77 3.91 M115.58 2.85 C131.13 -0.75, 151.26 -1.46, 168.85 -0.73 C186.43 0, 204.95 2.86, 221.1 7.21 C237.25 11.56, 253.07 18.81, 265.76 25.39 C278.44 31.98, 289.58 38.59, 297.19 46.73 C304.79 54.87, 309.58 64.43, 311.39 74.25 C313.19 84.08, 312.47 96.14, 308 105.68 C303.53 115.22, 294.73 123.67, 284.56 131.49 C274.39 139.31, 261.53 147.28, 246.99 152.6 C232.45 157.92, 214.55 161.12, 197.33 163.39 C180.11 165.67, 161.47 166.75, 143.68 166.27 C125.89 165.78, 106.91 164.13, 90.61 160.49 C74.31 156.86, 58.19 151.34, 45.87 144.48 C33.55 137.62, 24.06 128.28, 16.69 119.35 C9.33 110.42, 3.56 100.13, 1.68 90.91 C-0.2 81.7, 1.07 73.29, 5.41 64.04 C9.76 54.79, 18 43.62, 27.76 35.43 C37.53 27.25, 49.35 20.28, 64.02 14.93 C78.68 9.57, 107.37 4.78, 115.75 3.3 C124.13 1.83, 113.71 4.77, 114.31 6.08" stroke="#000000" stroke-width="1" fill="none"></path></g><g transform="translate(420.7142028808594 628.7857666015625) rotate(0 151 39)"><text x="151" y="18" font-family="Virgil, Segoe UI Emoji" font-size="20px" fill="#000000" text-anchor="middle" style="white-space: pre;" direction="ltr">mensagem explicando que não </text><text x="151" y="44" font-family="Virgil, Segoe UI Emoji" font-size="20px" fill="#000000" text-anchor="middle" style="white-space: pre;" direction="ltr">há estoque e opções de </text><text x="151" y="70" font-family="Virgil, Segoe UI Emoji" font-size="20px" fill="#000000" text-anchor="middle" style="white-space: pre;" direction="ltr">outros ingressos disponíveis</text></g><g stroke-linecap="round"><g transform="translate(238.57138061523438 701.4285583496094) rotate(0 8.321328682899491 51.09734113216405)"><path d="M0.26 0.83 C2.67 17.61, 12.87 83.93, 15.41 100.61 M-1.07 0.23 C1.64 17.18, 14.53 84.96, 17.71 101.97" stroke="#000000" stroke-width="1" fill="none"></path></g><g transform="translate(238.57138061523438 701.4285583496094) rotate(0 8.321328682899491 51.09734113216405)"><path d="M3.8 74.86 C7.62 84.7, 13.97 94.04, 17.28 101.17 M2.56 76.92 C6.96 82.92, 10.98 90.13, 16.98 102.26" stroke="#000000" stroke-width="1" fill="none"></path></g><g transform="translate(238.57138061523438 701.4285583496094) rotate(0 8.321328682899491 51.09734113216405)"><path d="M23.97 71.06 C20.15 82.38, 18.86 93.16, 17.28 101.17 M22.73 73.13 C21.7 80.26, 20.33 88.48, 16.98 102.26" stroke="#000000" stroke-width="1" fill="none"></path></g></g><g stroke-linecap="round"><g transform="translate(160.47610473632812 1280.2381057739258) rotate(0 1.2800654414538428 48.379043704766104)"><path d="M-0.87 0.35 C-0.43 16.24, 2.49 79.89, 3.43 95.63 M0.87 -0.51 C1.08 15.57, 1.78 81.22, 2.4 97.26" stroke="#000000" stroke-width="1" fill="none"></path></g><g transform="translate(160.47610473632812 1280.2381057739258) rotate(0 1.2800654414538428 48.379043704766104)"><path d="M-7.9 69.04 C-4.17 81.45, -1.61 87.63, 3.24 96.6 M-8.5 68.44 C-4.55 77.02, -1.92 84.72, 2.35 97.2" stroke="#000000" stroke-width="1" fill="none"></path></g><g transform="translate(160.47610473632812 1280.2381057739258) rotate(0 1.2800654414538428 48.379043704766104)"><path d="M12.61 68.58 C8.93 81.01, 4.07 87.35, 3.24 96.6 M12.01 67.97 C10.22 76.69, 7.1 84.52, 2.35 97.2" stroke="#000000" stroke-width="1" fill="none"></path></g></g><g stroke-linecap="round" transform="translate(10 1388.8095779418945) rotate(0 157 61.5)"><path d="M89.71 5.44 C104.02 1.71, 125.03 -0.16, 142.73 -0.69 C160.43 -1.21, 178.54 0.35, 195.91 2.29 C213.28 4.24, 232.05 6.97, 246.94 10.96 C261.83 14.96, 275.03 20.48, 285.25 26.24 C295.47 31.99, 303.41 38.9, 308.27 45.5 C313.13 52.11, 315.97 59.05, 314.42 65.89 C312.86 72.73, 306.59 80.19, 298.92 86.55 C291.24 92.91, 280.86 99.04, 268.37 104.05 C255.88 109.07, 240.11 113.39, 223.98 116.64 C207.86 119.9, 189.51 122.81, 171.61 123.6 C153.72 124.39, 133.96 123.19, 116.59 121.4 C99.21 119.61, 82.09 116.9, 67.38 112.85 C52.68 108.8, 38.68 102.82, 28.35 97.1 C18.02 91.37, 9.97 85.27, 5.41 78.51 C0.85 71.75, -0.47 63.54, 0.99 56.52 C2.44 49.49, 6.65 42.64, 14.15 36.34 C21.64 30.05, 31.93 23.91, 45.96 18.73 C59.99 13.55, 87.98 7.49, 98.35 5.28 C108.72 3.06, 107.18 4.55, 108.17 5.42 M148.23 1.41 C165.12 -0.05, 184.36 0.72, 201.26 2.27 C218.16 3.82, 235.23 6.69, 249.62 10.7 C264.01 14.7, 277.68 20.09, 287.6 26.3 C297.52 32.52, 305.17 40.89, 309.15 47.97 C313.14 55.04, 313.53 61.67, 311.51 68.74 C309.48 75.81, 304.88 84.12, 297 90.38 C289.12 96.63, 277.33 101.5, 264.2 106.29 C251.08 111.08, 234.38 116.22, 218.23 119.1 C202.08 121.98, 185.06 123.25, 167.3 123.56 C149.54 123.87, 128.91 123.07, 111.66 120.95 C94.41 118.83, 78.21 114.95, 63.82 110.83 C49.43 106.71, 35.28 102.17, 25.33 96.23 C15.38 90.3, 8.26 82.11, 4.12 75.21 C-0.02 68.31, -1.46 61.76, 0.49 54.82 C2.45 47.87, 7.91 39.64, 15.87 33.53 C23.83 27.42, 34.98 22.71, 48.26 18.16 C61.54 13.6, 78.84 9.25, 95.55 6.2 C112.26 3.15, 140.02 0.49, 148.53 -0.15 C157.04 -0.8, 146.69 1.44, 146.6 2.32" stroke="#000000" stroke-width="1" fill="none"></path></g><g transform="translate(15 1424.3095779418945) rotate(0 152 26)"><text x="152" y="18" font-family="Virgil, Segoe UI Emoji" font-size="20px" fill="#000000" text-anchor="middle" style="white-space: pre;" direction="ltr">dados da pessoa, do cartão </text><text x="152" y="44" font-family="Virgil, Segoe UI Emoji" font-size="20px" fill="#000000" text-anchor="middle" style="white-space: pre;" direction="ltr">e finalização da compra</text></g></svg>